<?xml version="1.0" encoding="UTF-8"?>
<svg id="Camada_1" xmlns="http://www.w3.org/2000/svg" version="1.1" viewBox="0 0 64 64">
  <!-- Generator: Adobe Illustrator 29.1.0, SVG Export Plug-In . SVG Version: 2.1.0 Build 142)  -->
  <defs>
    <style>
      .st0 {
        fill: #ef9926;
      }

      .st1 {
        fill: #154979;
      }

      .st2 {
        fill: #5aa4ca;
      }
    </style>
  </defs>
  <path class="st2" d="M32.48,8.62c.23.21.52.2.8.37,1.69,1.04,3.9,3.43,5.53,4.78,1.01.85,2.06,1.67,3.13,2.46v-2.39c0-.21.61-.68.82-.78.87-.4,3.84-.34,4.9-.27,2.54.17,1.92,1.31,2.01,3.26.02.33.13.62.13.97.03,1.92-.19,3.83-.15,5.75-2.09,2.25-4.22,4.46-6.47,6.55.41.75,1.29,1.28,2.08,1.58s1.51.06,1.95,1c1.1,2.35-3.16,5.47-4.38,2.91-.25-.52-.2-.99-.35-1.49-.21-.68-.84-1.58-1.55-1.73l-8.86,9.07-7.91-7.92c-.05-.28.12-.16.29-.2.73-.18,1.25-.19,1.91-.67,2.84-2.05.37-6.74-2.63-7.05-2.47-.25-3.45,1.02-3.87,3.25-.03.16.09.22-.18.18l-5.21-5.23c-.05-.29,3.37-3.18,3.86-3.6,3.81-3.28,8.18-7.2,12.15-10.19.33-.25.68-.42,1.04-.62h.98Z"/>
  <path class="st0" d="M32.73,50.29c-.09-.42-.74-.8-1.17-.8-.87,0-1.66,1.04-2.36,1.2-3.55.81-3.16-6.58.3-5.28.59.22.93.91,1.75,1.08,2.35.48,1.16-3.32,1.54-4.61,2.66-2.28,4.93-5.54,7.6-7.74.88-.73.55-.35.71.28,1.31,5.34,8.48,2.26,7.67-2.52-.28-1.69-1.93-2.36-3.41-2.61l5.46-5.46,8.83,7.61c.55.97.46,2.38-.49,3.06-.12.09-.65.37-.74.37h-6.14c-.4,0-.06,1.38-.06,1.65.14,4.47-.05,9.03,0,13.5.02,1.86.21,5.34-2.52,5.34h-16.81s-.18-.17-.18-.18v-4.91Z"/>
  <path class="st1" d="M31.26,44.82c-.56-.15-.91-.58-1.47-.8-5.3-2.03-6.33,8.95-.58,8.13.86-.12,1.3-.66,2.06-.95v4.05H13.65c-.42,0-1.78-1.36-1.78-1.78v-18.59h-6.32c-.15,0-.85-.46-.99-.61-.66-.72-.76-2.1-.16-2.87l8.69-7.39.44.07,6.38,6.27c.37-.4.84-.74,1.09-1.24.4-.79.19-1.66.74-2.32,1.62-1.94,5.53,1.26,4.1,3.61-.73,1.2-3.49.48-3.73,2.29l8.54,8.53c.07.16.61.69.61.74v2.88Z"/>
</svg>